<svg width="165" height="157" viewBox="0 0 165 157" fill="none" xmlns="http://www.w3.org/2000/svg">
<path d="M6.4092 117.611C10.0264 125.538 15.1827 132.668 21.5785 138.586C27.9743 144.503 35.4822 149.091 43.666 152.083L43.8774 152.16C52.0245 155.161 60.6871 156.512 69.3612 156.134C78.0352 155.756 86.5474 153.656 94.4025 149.957L126.9 134.569L158.148 119.764C161.007 118.39 163.21 115.946 164.281 112.961C165.353 109.976 165.207 106.689 163.875 103.811L151.055 76.3179C150.405 74.8805 149.472 73.5894 148.31 72.522C147.149 71.4546 145.784 70.6331 144.297 70.1069L144.226 70.0812C142.73 69.5306 141.139 69.2874 139.547 69.3662C137.955 69.445 136.395 69.8442 134.961 70.5399L103.994 85.4478L71.5159 101.003C68.6649 102.307 65.4181 102.452 62.4623 101.406C59.5065 100.36 57.0734 98.2053 55.6778 95.3975C55.0039 93.9861 54.618 92.4545 54.5425 90.8922C54.4671 89.33 54.7036 87.7683 55.2384 86.2985C56.3792 83.13 58.7273 80.5415 61.7699 79.0982L94.2674 64.588L125.567 50.5195C127.027 49.8789 128.343 48.9521 129.439 47.7939C130.534 46.6356 131.387 45.2694 131.945 43.7761C132.503 42.2827 132.757 40.6926 132.69 39.0997C132.623 37.5068 132.237 35.9434 131.556 34.5021L118.762 6.9389C117.383 4.09512 114.957 1.89555 111.993 0.801589C109.028 -0.292379 105.755 -0.19575 102.86 1.07119L71.3616 15.4664L39.2422 30.0344C6.17409 45.4543 -8.58786 84.697 6.4092 117.611ZM140.193 81.3832L153.013 108.876L127.244 121.126L114.469 93.7296L140.193 81.3832ZM107.803 12.049L120.694 39.5674L94.6558 51.2409L81.8806 23.8443L107.803 12.049ZM70.9733 28.8135L83.7037 56.1139L56.8008 68.1909L56.7303 68.1652C53.7679 69.5474 51.1107 71.5062 48.914 73.9271C46.7173 76.348 45.0252 79.1824 43.9364 82.2647C42.8904 85.1961 42.432 88.3048 42.5874 91.4133C42.7428 94.5218 43.509 97.5693 44.8422 100.382C46.1754 103.194 48.0495 105.716 50.3575 107.805C52.6654 109.893 55.3621 111.506 58.2935 112.552C61.2544 113.649 64.4033 114.149 67.5585 114.024C70.7138 113.898 73.8129 113.149 76.6773 111.82L103.651 98.891L116.426 126.288L89.3372 139.095C82.9027 142.106 75.9359 143.815 68.8382 144.122C61.7404 144.429 54.6521 143.328 47.9817 140.883L47.8407 140.832C41.1358 138.382 34.9858 134.621 29.7496 129.769C24.5133 124.917 20.2955 119.071 17.3421 112.572C5.07295 85.7583 17.1993 53.5377 44.3074 40.8969L70.9733 28.8135Z" fill="#315796"/>
</svg>
