<svg width="96" height="96" viewBox="0 0 96 96" fill="none" xmlns="http://www.w3.org/2000/svg">
<rect width="96" height="96" rx="48" fill="white" fill-opacity="0.8"/>
<path d="M54 42H54.02M42 42H42.02M68 48C68 59.0457 59.0457 68 48 68C36.9543 68 28 59.0457 28 48C28 36.9543 36.9543 28 48 28C59.0457 28 68 36.9543 68 48ZM55 42C55 42.5523 54.5523 43 54 43C53.4477 43 53 42.5523 53 42C53 41.4477 53.4477 41 54 41C54.5523 41 55 41.4477 55 42ZM43 42C43 42.5523 42.5523 43 42 43C41.4477 43 41 42.5523 41 42C41 41.4477 41.4477 41 42 41C42.5523 41 43 41.4477 43 42ZM48 59C53.001 59 57 55.334 57 52H39C39 55.334 42.999 59 48 59Z" stroke="#315796" stroke-opacity="0.8" stroke-width="4" stroke-linecap="round" stroke-linejoin="round"/>
</svg>
