<svg width="32" height="32" viewBox="0 0 32 32" fill="none" xmlns="http://www.w3.org/2000/svg">
<path d="M3.99967 8.00016H27.9997V14.6668H30.6663V8.00016C30.6663 6.5335 29.4663 5.3335 27.9997 5.3335H3.99967C2.53301 5.3335 1.33301 6.5335 1.33301 8.00016V24.0002C1.33301 25.4668 2.53301 26.6668 3.99967 26.6668H15.9997V24.0002H3.99967V8.00016Z" fill="white"/>
<path d="M20 16.0003L12 10.667V21.3337L20 16.0003Z" fill="white"/>
<path d="M30.2793 24.5735C30.3193 24.1868 30.3326 23.8002 30.2926 23.4268L31.7193 22.2935C31.8526 22.1868 31.8793 22.0135 31.7993 21.8668L30.4259 19.4802C30.3459 19.3335 30.1726 19.2802 30.0126 19.3335L28.3059 20.0002C27.9993 19.7735 27.6659 19.5868 27.3059 19.4402L27.0393 17.6268C27.0126 17.4535 26.8793 17.3335 26.706 17.3335H23.9459C23.7859 17.3335 23.6393 17.4535 23.6126 17.6135L23.346 19.4268C22.9993 19.5735 22.666 19.7735 22.3593 19.9868L20.6526 19.3202C20.4926 19.2535 20.3193 19.3202 20.2393 19.4668L18.8659 21.8535C18.7859 22.0002 18.8126 22.1735 18.946 22.2802L20.3726 23.4268C20.3326 23.8135 20.3193 24.2002 20.3593 24.5735L18.9326 25.7068C18.7993 25.8135 18.7726 25.9868 18.8526 26.1335L20.226 28.5202C20.306 28.6668 20.4793 28.7202 20.6393 28.6668L22.3326 28.0002C22.6393 28.2268 22.9726 28.4135 23.3326 28.5602L23.5993 30.3735C23.626 30.5335 23.7593 30.6535 23.9326 30.6535H26.6926C26.8526 30.6535 26.9993 30.5335 27.026 30.3735L27.2926 28.5602C27.6393 28.4135 27.9726 28.2135 28.2793 28.0002L29.9859 28.6668C30.1459 28.7335 30.3193 28.6668 30.3993 28.5202L31.7726 26.1335C31.8526 25.9868 31.826 25.8135 31.6926 25.7068L30.2793 24.5735ZM25.3326 26.0002C24.2259 26.0002 23.3326 25.1068 23.3326 24.0002C23.3326 22.8935 24.2259 22.0002 25.3326 22.0002C26.4393 22.0002 27.3326 22.8935 27.3326 24.0002C27.3326 25.1068 26.4393 26.0002 25.3326 26.0002Z" fill="white"/>
</svg>
