<svg width="48" height="48" viewBox="0 0 48 48" fill="none" xmlns="http://www.w3.org/2000/svg">
<path d="M19.0499 35.0814C18.0374 38.1564 15.5999 40.4064 12.0186 41.6064C10.4077 42.1381 8.72705 42.4287 7.03113 42.4689C6.6333 42.4689 6.25177 42.3108 5.97047 42.0295C5.68916 41.7482 5.53113 41.3667 5.53113 40.9689C5.57128 39.273 5.86192 37.5923 6.39363 35.9814C7.59363 32.4001 9.84363 29.9626 12.9186 28.9501C13.1092 28.8665 13.315 28.8233 13.5231 28.8235C13.7312 28.8237 13.937 28.8672 14.1274 28.9513C14.3178 29.0353 14.4886 29.158 14.629 29.3116C14.7694 29.4652 14.8763 29.6464 14.9429 29.8436C15.0095 30.0407 15.0343 30.2496 15.0158 30.4569C14.9973 30.6641 14.9359 30.8653 14.8354 31.0476C14.735 31.2298 14.5977 31.3892 14.4323 31.5155C14.267 31.6418 14.0771 31.7324 13.8749 31.7814C10.1811 33.0189 9.03738 37.0126 8.68113 39.3189C10.9874 38.9626 14.9811 37.8189 16.2186 34.1251C16.3694 33.7818 16.6433 33.5074 16.9864 33.356C17.3294 33.2045 17.7168 33.1871 18.072 33.3071C18.4273 33.4271 18.7247 33.6758 18.9057 34.0042C19.0867 34.3326 19.1382 34.7169 19.0499 35.0814ZM37.7811 20.8126L36.1124 22.5001V33.9939C36.107 34.7882 35.7906 35.5488 35.2311 36.1126L29.1561 42.1689C28.8806 42.451 28.5509 42.6745 28.1868 42.826C27.8227 42.9774 27.4317 43.0537 27.0374 43.0501C26.7447 43.0525 26.4536 43.0081 26.1749 42.9189C25.6529 42.7625 25.1834 42.467 24.8168 42.064C24.4501 41.661 24.2001 41.1657 24.0936 40.6314L22.6124 33.2251L14.7749 25.3876L7.36863 23.9064C6.83429 23.7999 6.33903 23.5499 5.93603 23.1832C5.53302 22.8166 5.23748 22.3471 5.08113 21.8251C4.92354 21.3069 4.9101 20.7556 5.04223 20.2304C5.17437 19.7051 5.4471 19.2258 5.83113 18.8439L11.8874 12.7689C12.4512 12.2094 13.2118 11.893 14.0061 11.8876H25.4999L27.1874 10.2189C32.5499 4.85638 38.0436 5.00638 40.1624 5.32513C40.7977 5.41304 41.3869 5.70603 41.8405 6.15955C42.294 6.61307 42.587 7.20231 42.6749 7.83763C42.9936 9.95638 43.1436 15.4501 37.7811 20.8126ZM7.94988 20.9626L15.0186 22.3689L22.4999 14.8876H14.0061L7.94988 20.9626ZM33.1124 25.5001L25.6311 32.9814L27.0374 40.0501L33.1124 33.9939V25.5001Z" fill="#315796"/>
</svg>
