<svg width="96" height="96" viewBox="0 0 96 96" fill="none" xmlns="http://www.w3.org/2000/svg">
<rect width="96" height="96" rx="48" fill="white"/>
<path d="M59.9997 55.6738C62.9115 57.1365 65.4079 59.4839 67.2302 62.4193C67.591 63.0005 67.7714 63.2912 67.8338 63.6937C67.9606 64.5115 67.4013 65.5171 66.6396 65.8407C66.2647 66 65.843 66 64.9997 66M55.9997 47.0645C58.9631 45.5918 60.9997 42.5337 60.9997 39C60.9997 35.4663 58.9631 32.4082 55.9997 30.9355M51.9997 39C51.9997 43.9706 47.9702 48 42.9997 48C38.0291 48 33.9997 43.9706 33.9997 39C33.9997 34.0294 38.0291 30 42.9997 30C47.9702 30 51.9997 34.0294 51.9997 39ZM29.1181 61.8767C32.3067 57.0891 37.3384 54 42.9997 54C48.6609 54 53.6926 57.0891 56.8812 61.8767C57.5798 62.9255 57.929 63.4499 57.8888 64.1198C57.8575 64.6414 57.5156 65.28 57.0988 65.5952C56.5635 66 55.8273 66 54.355 66H31.6444C30.172 66 29.4358 66 28.9006 65.5952C28.4838 65.28 28.1418 64.6414 28.1105 64.1198C28.0703 63.4499 28.4196 62.9255 29.1181 61.8767Z" stroke="#315796" stroke-opacity="0.8" stroke-width="4" stroke-linecap="round" stroke-linejoin="round"/>
</svg>
