<svg width="30" height="21" viewBox="0 0 30 21" fill="none" xmlns="http://www.w3.org/2000/svg">
<path d="M14.9997 3.00016C20.053 3.00016 24.5597 5.84016 26.7597 10.3335C24.5597 14.8268 20.053 17.6668 14.9997 17.6668C9.94634 17.6668 5.43967 14.8268 3.23967 10.3335C5.43967 5.84016 9.94634 3.00016 14.9997 3.00016ZM14.9997 0.333496C8.33301 0.333496 2.63967 4.48016 0.333008 10.3335C2.63967 16.1868 8.33301 20.3335 14.9997 20.3335C21.6663 20.3335 27.3597 16.1868 29.6663 10.3335C27.3597 4.48016 21.6663 0.333496 14.9997 0.333496ZM14.9997 7.00016C16.8397 7.00016 18.333 8.4935 18.333 10.3335C18.333 12.1735 16.8397 13.6668 14.9997 13.6668C13.1597 13.6668 11.6663 12.1735 11.6663 10.3335C11.6663 8.4935 13.1597 7.00016 14.9997 7.00016ZM14.9997 4.3335C11.693 4.3335 8.99967 7.02683 8.99967 10.3335C8.99967 13.6402 11.693 16.3335 14.9997 16.3335C18.3063 16.3335 20.9997 13.6402 20.9997 10.3335C20.9997 7.02683 18.3063 4.3335 14.9997 4.3335Z" fill="#F3F7FF"/>
</svg>
