<svg width="48" height="48" viewBox="0 0 48 48" fill="none" xmlns="http://www.w3.org/2000/svg">
<path d="M24.5609 21.4792C22.1009 22.4192 19.5409 22.3192 18.5209 19.4992C16.3809 13.6992 22.0009 12.3992 22.2809 12.3192L24.5609 21.4792ZM26.1809 11.4192L28.3209 20.0592C30.4209 19.6792 32.5209 20.2592 35.0009 20.2592C38.3609 20.2592 44.9409 17.5992 43.8809 13.3592C42.6809 8.51922 37.3009 7.81922 34.7009 7.99922C32.1009 8.23922 26.5409 11.2792 26.1809 11.4192ZM8.30089 35.6992C8.00089 35.6392 2.40089 34.3192 4.52089 28.5192C5.56089 25.7192 8.1209 25.5992 10.5809 26.5392L8.30089 35.6992ZM20.7009 39.9992C23.3009 40.1992 28.7009 39.5192 29.9009 34.6592C31.0009 30.4392 24.3809 27.7792 21.0009 27.7792C18.5409 27.7792 16.4409 28.3392 14.3409 27.9992L12.2009 36.5992C12.5609 36.7592 18.1209 39.7792 20.7009 39.9992Z" fill="#315796"/>
</svg>
