<svg width="120" height="120" viewBox="0 0 120 120" fill="none" xmlns="http://www.w3.org/2000/svg">
<rect width="120" height="120" rx="60" fill="white"/>
<path d="M59.9996 67.5C52.0744 67.5 45.0266 71.3266 40.5396 77.2649C39.5739 78.543 39.091 79.182 39.1068 80.0457C39.119 80.713 39.538 81.5547 40.063 81.9667C40.7426 82.5 41.6843 82.5 43.5677 82.5H76.4315C78.315 82.5 79.2567 82.5 79.9362 81.9667C80.4612 81.5547 80.8802 80.713 80.8924 80.0457C80.9082 79.182 80.4254 78.543 79.4596 77.2649C74.9726 71.3266 67.9248 67.5 59.9996 67.5Z" stroke="#315796" stroke-width="5" stroke-linecap="round" stroke-linejoin="round"/>
<path d="M59.9996 60C66.2128 60 71.2496 54.9632 71.2496 48.75C71.2496 42.5368 66.2128 37.5 59.9996 37.5C53.7864 37.5 48.7496 42.5368 48.7496 48.75C48.7496 54.9632 53.7864 60 59.9996 60Z" stroke="#315796" stroke-width="5" stroke-linecap="round" stroke-linejoin="round"/>
</svg>
