<svg width="334" height="258" viewBox="0 0 334 258" fill="none" xmlns="http://www.w3.org/2000/svg">
<g filter="url(#filter0_d_54_5381)">
<path d="M296 146.5C296 131.858 293.116 117.359 287.513 103.831C281.909 90.303 273.696 78.0113 263.342 67.6576C252.989 57.3039 240.697 49.0908 227.169 43.4874C213.641 37.884 199.142 35 184.5 35C169.858 35 155.359 37.884 141.831 43.4874C128.303 49.0908 116.011 57.3039 105.658 67.6576C95.3039 78.0113 87.0908 90.303 81.4874 103.831C75.884 117.359 73 131.858 73 146.5L184.5 146.5H296Z" fill="white"/>
</g>
<g filter="url(#filter1_d_54_5381)">
<path d="M160 146.5C160 137.504 158.228 128.597 154.786 120.286C151.343 111.975 146.298 104.424 139.937 98.0632C133.576 91.7024 126.025 86.6567 117.714 83.2143C109.403 79.7718 100.496 78 91.5 78C82.5044 78 73.597 79.7718 65.2862 83.2143C56.9754 86.6567 49.424 91.7024 43.0632 98.0632C36.7024 104.424 31.6567 111.975 28.2143 120.286C24.7718 128.597 23 137.504 23 146.5L91.5 146.5H160Z" fill="white"/>
</g>
<defs>
<filter id="filter0_d_54_5381" x="35.8333" y="0.806665" width="297.333" height="185.833" filterUnits="userSpaceOnUse" color-interpolation-filters="sRGB">
<feFlood flood-opacity="0" result="BackgroundImageFix"/>
<feColorMatrix in="SourceAlpha" type="matrix" values="0 0 0 0 0 0 0 0 0 0 0 0 0 0 0 0 0 0 127 0" result="hardAlpha"/>
<feOffset dy="2.97333"/>
<feGaussianBlur stdDeviation="18.5833"/>
<feComposite in2="hardAlpha" operator="out"/>
<feColorMatrix type="matrix" values="0 0 0 0 0.780392 0 0 0 0 0.933333 0 0 0 0 1 0 0 0 0.2 0"/>
<feBlend mode="normal" in2="BackgroundImageFix" result="effect1_dropShadow_54_5381"/>
<feBlend mode="normal" in="SourceGraphic" in2="effect1_dropShadow_54_5381" result="shape"/>
</filter>
<filter id="filter1_d_54_5381" x="0.166666" y="56.9933" width="182.667" height="114.167" filterUnits="userSpaceOnUse" color-interpolation-filters="sRGB">
<feFlood flood-opacity="0" result="BackgroundImageFix"/>
<feColorMatrix in="SourceAlpha" type="matrix" values="0 0 0 0 0 0 0 0 0 0 0 0 0 0 0 0 0 0 127 0" result="hardAlpha"/>
<feOffset dy="1.82667"/>
<feGaussianBlur stdDeviation="11.4167"/>
<feComposite in2="hardAlpha" operator="out"/>
<feColorMatrix type="matrix" values="0 0 0 0 0.780392 0 0 0 0 0.933333 0 0 0 0 1 0 0 0 0.2 0"/>
<feBlend mode="normal" in2="BackgroundImageFix" result="effect1_dropShadow_54_5381"/>
<feBlend mode="normal" in="SourceGraphic" in2="effect1_dropShadow_54_5381" result="shape"/>
</filter>
</defs>
</svg>
