<svg width="89" height="120" viewBox="0 0 89 120" fill="none" xmlns="http://www.w3.org/2000/svg">
<path d="M15 120L42.4407 30.2642H44.4407H46.4831L74 120H68.5772L63.9845 104.327H30.4435L31.9735 99.103H62.4571L57.8618 83.4302H36.5688L38.0988 78.206H56.3317L51.739 62.5332H42.6889L44.219 57.3089H50.2064L44.5 37.8303L20.4254 120H15Z" fill="#315796"/>
<path d="M16.7477 3.53724L13.049 0C4.98924 7.70533 0 18.3446 0 30.0778C0 41.811 4.98924 52.4503 13.049 60.1581L16.7503 56.6184C9.63818 49.8193 5.23529 40.4317 5.23529 30.0778C5.23529 19.7239 9.63818 10.3364 16.7477 3.53724ZM75.9537 0L72.2523 3.53974C79.3592 10.3364 83.7647 19.7239 83.7647 30.0778C83.7647 40.4317 79.3618 49.8193 72.2523 56.6184L75.9537 60.1581C84.0108 52.4503 89 41.811 89 30.0778C89 18.3446 84.0108 7.70533 75.9537 0ZM27.8491 14.154L24.1478 10.6142C18.9334 15.6009 15.7059 22.4851 15.7059 30.0778C15.7059 37.668 18.9334 44.5522 24.1504 49.5389L27.8518 46.0017C23.5824 41.9212 20.9412 36.2886 20.9412 30.0778C20.9412 23.867 23.5824 18.2344 27.8491 14.154ZM64.8496 10.6167L61.1509 14.1565C65.415 18.2344 68.0588 23.867 68.0588 30.0778C68.0588 36.2886 65.415 41.9212 61.1509 46.0017L64.8496 49.5389C70.0666 44.5522 73.2941 37.668 73.2941 30.0778C73.2941 22.4851 70.0666 15.6009 64.8496 10.6167ZM53.7508 21.231C56.1197 23.499 57.5882 26.6282 57.5882 30.0778C57.5882 36.9796 51.7169 42.5946 44.5 42.5946C37.2831 42.5946 31.4118 36.9796 31.4118 30.0778C31.4118 23.1761 37.2831 17.561 44.5 17.561C45.3952 17.561 46.2721 17.6487 47.1176 17.8139V23.0284C46.2957 22.748 45.424 22.5677 44.5 22.5677C40.1704 22.5677 36.6471 25.9373 36.6471 30.0778C36.6471 34.2184 40.1704 37.5879 44.5 37.5879C48.8296 37.5879 52.3529 34.2184 52.3529 30.0778C52.3529 28.0075 51.4734 26.13 50.0494 24.7707L53.7508 21.231Z" fill="#315796"/>
</svg>
