<svg width="247" height="247" viewBox="0 0 247 247" fill="none" xmlns="http://www.w3.org/2000/svg">
<g clip-path="url(#clip0_457_35579)">
<path opacity="0.2" d="M114.873 60.8496L146.345 46.5249C147.794 45.888 149.435 45.8419 150.917 46.3965C152.4 46.951 153.608 48.0624 154.283 49.494L167.148 77.0828C167.805 78.543 167.859 80.2035 167.298 81.7032C166.737 83.203 165.607 84.4207 164.153 85.0915L132.713 99.1087L114.873 60.8496ZM165.346 169.09L196.569 154.355C198.008 153.682 199.121 152.466 199.664 150.973C200.208 149.48 200.137 147.832 199.467 146.391L186.602 118.803C185.906 117.361 184.669 116.252 183.159 115.718C181.65 115.183 179.991 115.266 178.542 115.949L147.576 130.857L165.346 169.09Z" fill="#315796"/>
<path d="M47.4092 157.611C51.0265 165.538 56.1827 172.668 62.5785 178.586C68.9743 184.503 76.4822 189.091 84.666 192.083L84.8774 192.16C93.0245 195.161 101.687 196.512 110.361 196.134C119.035 195.756 127.547 193.656 135.402 189.957L167.9 174.569L199.148 159.764C202.007 158.39 204.21 155.946 205.281 152.961C206.353 149.976 206.207 146.689 204.875 143.811L192.055 116.318C191.405 114.881 190.472 113.589 189.31 112.522C188.149 111.455 186.784 110.633 185.297 110.107L185.226 110.081C183.73 109.531 182.139 109.287 180.547 109.366C178.955 109.445 177.395 109.844 175.961 110.54L144.995 125.448L112.516 141.003C109.665 142.307 106.418 142.452 103.462 141.406C100.506 140.36 98.0734 138.205 96.6778 135.398C96.0039 133.986 95.618 132.454 95.5425 130.892C95.4671 129.33 95.7036 127.768 96.2384 126.299C97.3792 123.13 99.7273 120.542 102.77 119.098L135.267 104.588L166.567 90.5195C168.027 89.879 169.343 88.9521 170.439 87.7939C171.534 86.6356 172.387 85.2694 172.945 83.7761C173.503 82.2828 173.757 80.6926 173.69 79.0997C173.623 77.5068 173.237 75.9434 172.556 74.5021L159.762 46.9389C158.383 44.0951 155.957 41.8956 152.993 40.8016C150.028 39.7076 146.755 39.8042 143.86 41.0712L112.362 55.4664L80.2422 70.0344C47.1741 85.4543 32.4121 124.697 47.4092 157.611V157.611ZM181.193 121.383L194.013 148.876L168.244 161.126L155.469 133.73L181.193 121.383ZM148.803 52.049L161.694 79.5674L135.656 91.2409L122.881 63.8443L148.803 52.049ZM111.973 68.8135L124.704 96.1139L97.8008 108.191L97.7303 108.165C94.7679 109.547 92.1107 111.506 89.914 113.927C87.7173 116.348 86.0252 119.182 84.9364 122.265C83.8904 125.196 83.432 128.305 83.5874 131.413C83.7428 134.522 84.509 137.569 85.8422 140.382C87.1754 143.194 89.0495 145.716 91.3575 147.805C93.6654 149.893 96.3621 151.506 99.2935 152.552C102.254 153.649 105.403 154.149 108.559 154.024C111.714 153.898 114.813 153.149 117.677 151.82L144.651 138.891L157.426 166.288L130.337 179.095C123.903 182.106 116.936 183.815 109.838 184.122C102.74 184.429 95.6521 183.328 88.9817 180.883L88.8407 180.832C82.1358 178.382 75.9858 174.621 70.7496 169.769C65.5133 164.917 61.2955 159.071 58.3421 152.572C46.0729 125.758 58.1993 93.5377 85.3074 80.8969L111.973 68.8135Z" fill="#315796"/>
</g>
<defs>
<clipPath id="clip0_457_35579">
<rect width="191.999" height="192" fill="white" transform="matrix(-0.939692 -0.342021 0.342019 -0.939693 180.42 246.089)"/>
</clipPath>
</defs>
</svg>
