<svg width="30" height="31" viewBox="0 0 30 31" fill="none" xmlns="http://www.w3.org/2000/svg">
<path d="M30 6.54971L23.1 0.699707L21.15 2.94971L28.05 8.79971L30 6.54971ZM8.85 3.09971L6.9 0.849707L0 6.54971L1.95 8.79971L8.85 3.09971ZM15.75 9.99971H13.5V18.9997L20.55 23.3497L21.75 21.5497L15.75 17.9497V9.99971ZM15 3.99971C7.5 3.99971 1.5 9.99971 1.5 17.4997C1.5 24.9997 7.5 30.9997 15 30.9997C22.5 30.9997 28.5 24.9997 28.5 17.4997C28.5 9.99971 22.5 3.99971 15 3.99971ZM15 27.9997C9.15 27.9997 4.5 23.3497 4.5 17.4997C4.5 11.6497 9.15 6.99971 15 6.99971C20.85 6.99971 25.5 11.6497 25.5 17.4997C25.5 23.3497 20.85 27.9997 15 27.9997Z" fill="white"/>
</svg>
