<svg width="30" height="24" viewBox="0 0 30 24" fill="none" xmlns="http://www.w3.org/2000/svg">
<path d="M27.5703 6.85518L25.7253 9.63018C26.615 11.4048 27.0506 13.3724 26.993 15.3568C26.9354 17.3411 26.3865 19.2802 25.3953 21.0002H4.60526C3.31701 18.7653 2.7832 16.1749 3.08297 13.6128C3.38274 11.0507 4.50012 8.65342 6.26948 6.77632C8.03883 4.89923 10.366 3.64225 12.9059 3.19173C15.4458 2.74121 18.0633 3.12113 20.3703 4.27518L23.1453 2.43018C20.32 0.618506 16.9687 -0.193311 13.6276 0.124586C10.2864 0.442484 7.14843 1.87173 4.7155 4.1837C2.28257 6.49567 0.695301 9.55679 0.207585 12.8774C-0.280132 16.198 0.359884 19.5863 2.02526 22.5002C2.28702 22.9536 2.66289 23.3306 3.11551 23.5938C3.56812 23.8569 4.08172 23.997 4.60526 24.0002H25.3803C25.9089 24.0023 26.4287 23.8647 26.887 23.6012C27.3454 23.3378 27.7259 22.958 27.9903 22.5002C29.3723 20.1061 30.0659 17.3766 29.9944 14.6131C29.923 11.8496 29.0892 9.15966 27.5853 6.84018L27.5703 6.85518ZM12.8853 17.1152C13.1639 17.3941 13.4947 17.6154 13.8589 17.7664C14.2231 17.9173 14.6135 17.995 15.0078 17.995C15.402 17.995 15.7924 17.9173 16.1566 17.7664C16.5208 17.6154 16.8516 17.3941 17.1303 17.1152L25.6203 4.38018L12.8853 12.8702C12.6063 13.1488 12.3851 13.4797 12.2341 13.8439C12.0831 14.2081 12.0054 14.5984 12.0054 14.9927C12.0054 15.3869 12.0831 15.7773 12.2341 16.1415C12.3851 16.5057 12.6063 16.8366 12.8853 17.1152Z" fill="#315796"/>
</svg>
