<svg width="36" height="22" viewBox="0 0 36 22" fill="none" xmlns="http://www.w3.org/2000/svg">
<path d="M33 21.5H24V15.5H19.98C18.27 19.13 14.58 21.5 10.5 21.5C4.71 21.5 0 16.79 0 11C0 5.21 4.71 0.5 10.5 0.5C14.58 0.5 18.255 2.87 19.98 6.5H36V15.5H33V21.5ZM27 18.5H30V12.5H33V9.5H17.91L17.565 8.495C16.515 5.51 13.665 3.5 10.5 3.5C6.36 3.5 3 6.86 3 11C3 15.14 6.36 18.5 10.5 18.5C13.665 18.5 16.515 16.49 17.565 13.505L17.91 12.5H27V18.5ZM10.5 15.5C8.025 15.5 6 13.475 6 11C6 8.525 8.025 6.5 10.5 6.5C12.975 6.5 15 8.525 15 11C15 13.475 12.975 15.5 10.5 15.5ZM10.5 9.5C9.675 9.5 9 10.175 9 11C9 11.825 9.675 12.5 10.5 12.5C11.325 12.5 12 11.825 12 11C12 10.175 11.325 9.5 10.5 9.5Z" fill="white"/>
</svg>
