<svg width="50" height="17" viewBox="0 0 50 17" fill="none" xmlns="http://www.w3.org/2000/svg">
<path d="M0.802 16L7.666 0.599999H11.186L18.072 16H14.332L8.7 2.404H10.108L4.454 16H0.802ZM4.234 12.7L5.18 9.994H13.1L14.068 12.7H4.234ZM19.6698 16V0.599999H26.6658C28.3378 0.599999 29.8118 0.922666 31.0878 1.568C32.3638 2.19867 33.3611 3.086 34.0798 4.23C34.7984 5.374 35.1578 6.73067 35.1578 8.3C35.1578 9.85467 34.7984 11.2113 34.0798 12.37C33.3611 13.514 32.3638 14.4087 31.0878 15.054C29.8118 15.6847 28.3378 16 26.6658 16H19.6698ZM23.2338 13.074H26.4898C27.5164 13.074 28.4038 12.8833 29.1517 12.502C29.9144 12.106 30.5011 11.5487 30.9118 10.83C31.3371 10.1113 31.5498 9.268 31.5498 8.3C31.5498 7.31733 31.3371 6.474 30.9118 5.77C30.5011 5.05133 29.9144 4.50133 29.1517 4.12C28.4038 3.724 27.5164 3.526 26.4898 3.526H23.2338V13.074ZM42.9055 16.264C41.6735 16.264 40.4929 16.1027 39.3635 15.78C38.2342 15.4427 37.3249 15.01 36.6355 14.482L37.8455 11.798C38.5055 12.2673 39.2829 12.656 40.1775 12.964C41.0869 13.2573 42.0035 13.404 42.9275 13.404C43.6315 13.404 44.1962 13.338 44.6215 13.206C45.0615 13.0593 45.3842 12.8613 45.5895 12.612C45.7949 12.3627 45.8975 12.0767 45.8975 11.754C45.8975 11.3433 45.7362 11.0207 45.4135 10.786C45.0909 10.5367 44.6655 10.3387 44.1375 10.192C43.6095 10.0307 43.0229 9.884 42.3775 9.752C41.7469 9.60533 41.1089 9.42933 40.4635 9.224C39.8329 9.01867 39.2535 8.75467 38.7255 8.432C38.1975 8.10933 37.7649 7.684 37.4275 7.156C37.1049 6.628 36.9435 5.95333 36.9435 5.132C36.9435 4.252 37.1782 3.45267 37.6475 2.734C38.1315 2.00067 38.8502 1.42133 39.8035 0.995999C40.7715 0.556 41.9815 0.336 43.4335 0.336C44.4015 0.336 45.3549 0.453333 46.2935 0.687999C47.2322 0.907999 48.0609 1.24533 48.7795 1.7L47.6795 4.406C46.9609 3.99533 46.2422 3.69467 45.5235 3.504C44.8049 3.29867 44.1009 3.196 43.4115 3.196C42.7222 3.196 42.1575 3.27667 41.7175 3.438C41.2775 3.59933 40.9622 3.812 40.7715 4.076C40.5809 4.32533 40.4855 4.61867 40.4855 4.956C40.4855 5.352 40.6469 5.67467 40.9695 5.924C41.2922 6.15867 41.7175 6.34933 42.2455 6.496C42.7735 6.64267 43.3529 6.78933 43.9835 6.936C44.6289 7.08267 45.2669 7.25133 45.8975 7.442C46.5429 7.63267 47.1295 7.88933 47.6575 8.212C48.1855 8.53467 48.6109 8.96 48.9335 9.488C49.2709 10.016 49.4395 10.6833 49.4395 11.49C49.4395 12.3553 49.1975 13.1473 48.7135 13.866C48.2295 14.5847 47.5035 15.164 46.5355 15.604C45.5822 16.044 44.3722 16.264 42.9055 16.264Z" fill="white"/>
</svg>
