<svg width="30" height="31" viewBox="0 0 30 31" fill="none" xmlns="http://www.w3.org/2000/svg">
<path d="M15.7504 9.99984H13.5004V18.9998L20.6254 23.2748L21.7504 21.4298L15.7504 17.8748V9.99984ZM23.0059 0.714844L29.9164 6.48234L27.9964 8.78484L21.0814 3.02034L23.0059 0.714844ZM6.99494 0.714844L8.91794 3.01884L2.00594 8.78484L0.0859375 6.48084L6.99494 0.714844ZM15.0004 3.99984C7.54544 3.99984 1.50044 10.0448 1.50044 17.4998C1.50044 24.9548 7.54544 30.9998 15.0004 30.9998C22.4554 30.9998 28.5004 24.9548 28.5004 17.4998C28.5004 10.0448 22.4554 3.99984 15.0004 3.99984ZM15.0004 27.9998C9.21044 27.9998 4.50044 23.2898 4.50044 17.4998C4.50044 11.7098 9.21044 6.99984 15.0004 6.99984C20.7904 6.99984 25.5004 11.7098 25.5004 17.4998C25.5004 23.2898 20.7904 27.9998 15.0004 27.9998Z" fill="#315796"/>
</svg>
