<svg width="134" height="177" viewBox="0 0 134 177" fill="none" xmlns="http://www.w3.org/2000/svg">
<path d="M22.5 176.327L63.661 45.1345H66.661H69.7246L111 176.327H102.866L95.9768 153.414H45.6652L47.9602 145.776H93.6856L86.7927 122.862H54.8532L57.1483 115.225H84.4976L77.6086 92.3114H64.0334L66.3285 84.6736H75.3096L66.75 56.1961L30.6381 176.327H22.5Z" fill="#5E81BB"/>
<path d="M25.1216 6.06006L19.5735 0.888672C7.48385 12.1537 0 27.7082 0 44.862C0 62.0158 7.48385 77.5702 19.5735 88.8389L25.1255 83.6639C14.4573 73.7237 7.85294 59.9992 7.85294 44.862C7.85294 29.7248 14.4573 16.0003 25.1216 6.06006ZM113.93 0.888672L108.378 6.06372C119.039 16.0003 125.647 29.7248 125.647 44.862C125.647 59.9992 119.043 73.7237 108.378 83.6639L113.93 88.8389C126.016 77.5702 133.5 62.0158 133.5 44.862C133.5 27.7082 126.016 12.1537 113.93 0.888672ZM41.7737 21.5816L36.2217 16.4065C28.4002 23.697 23.5588 33.7616 23.5588 44.862C23.5588 55.9587 28.4002 66.0233 36.2256 73.3138L41.7776 68.1424C35.3736 62.1768 31.4118 53.9421 31.4118 44.862C31.4118 35.7818 35.3736 27.5471 41.7737 21.5816ZM97.2744 16.4102L91.7263 21.5852C98.1225 27.5471 102.088 35.7818 102.088 44.862C102.088 53.9421 98.1225 62.1768 91.7263 68.1424L97.2744 73.3138C105.1 66.0233 109.941 55.9587 109.941 44.862C109.941 33.7616 105.1 23.697 97.2744 16.4102ZM80.6261 31.928C84.1796 35.2438 86.3824 39.8187 86.3824 44.862C86.3824 54.9522 77.5753 63.1613 66.75 63.1613C55.9247 63.1613 47.1176 54.9522 47.1176 44.862C47.1176 34.7717 55.9247 26.5626 66.75 26.5626C68.0928 26.5626 69.4082 26.6907 70.6765 26.9323V34.5558C69.4436 34.1459 68.136 33.8824 66.75 33.8824C60.2556 33.8824 54.9706 38.8085 54.9706 44.862C54.9706 50.9154 60.2556 55.8416 66.75 55.8416C73.2444 55.8416 78.5294 50.9154 78.5294 44.862C78.5294 41.8353 77.2101 39.0903 75.0741 37.103L80.6261 31.928Z" fill="#5E81BB"/>
</svg>
