<svg width="134" height="176" viewBox="0 0 134 176" fill="none" xmlns="http://www.w3.org/2000/svg">
<path d="M22.5 175.88L63.661 44.6877H66.661H69.7246L111 175.88H102.866L95.9768 152.967H45.6652L47.9602 145.329H93.6856L86.7927 122.416H54.8532L57.1483 114.778H84.4976L77.6086 91.8646H64.0334L66.3285 84.2268H75.3096L66.75 55.7493L30.6381 175.88H22.5Z" fill="#5E81BB"/>
<path d="M25.1216 5.61328L19.5735 0.441895C7.48385 11.707 0 27.2614 0 44.4152C0 61.569 7.48385 77.1234 19.5735 88.3921L25.1255 83.2171C14.4573 73.2769 7.85294 59.5524 7.85294 44.4152C7.85294 29.278 14.4573 15.5535 25.1216 5.61328ZM113.93 0.441895L108.378 5.61695C119.039 15.5535 125.647 29.278 125.647 44.4152C125.647 59.5524 119.043 73.2769 108.378 83.2171L113.93 88.3921C126.016 77.1234 133.5 61.569 133.5 44.4152C133.5 27.2614 126.016 11.707 113.93 0.441895ZM41.7737 21.1348L36.2217 15.9597C28.4002 23.2502 23.5588 33.3148 23.5588 44.4152C23.5588 55.5119 28.4002 65.5765 36.2256 72.867L41.7776 67.6956C35.3736 61.73 31.4118 53.4953 31.4118 44.4152C31.4118 35.3351 35.3736 27.1004 41.7737 21.1348ZM97.2744 15.9634L91.7263 21.1384C98.1225 27.1004 102.088 35.3351 102.088 44.4152C102.088 53.4953 98.1225 61.73 91.7263 67.6956L97.2744 72.867C105.1 65.5765 109.941 55.5119 109.941 44.4152C109.941 33.3148 105.1 23.2502 97.2744 15.9634ZM80.6261 31.4812C84.1796 34.7971 86.3824 39.3719 86.3824 44.4152C86.3824 54.5054 77.5753 62.7145 66.75 62.7145C55.9247 62.7145 47.1176 54.5054 47.1176 44.4152C47.1176 34.3249 55.9247 26.1159 66.75 26.1159C68.0928 26.1159 69.4082 26.2439 70.6765 26.4855V34.109C69.4436 33.6991 68.136 33.4356 66.75 33.4356C60.2556 33.4356 54.9706 38.3618 54.9706 44.4152C54.9706 50.4686 60.2556 55.3948 66.75 55.3948C73.2444 55.3948 78.5294 50.4686 78.5294 44.4152C78.5294 41.3885 77.2101 38.6436 75.0741 36.6563L80.6261 31.4812Z" fill="#5E81BB"/>
</svg>
